<svg width="32" height="33" viewBox="0 0 32 33" fill="none" xmlns="http://www.w3.org/2000/svg">
<g clip-path="url(#clip0_22739_40771)">
<path d="M25.312 0.797119H6.688C2.9942 0.797119 0 3.79132 0 7.48512V26.1091C0 29.8029 2.9942 32.7971 6.688 32.7971H25.312C29.0058 32.7971 32 29.8029 32 26.1091V7.48512C32 3.79132 29.0058 0.797119 25.312 0.797119ZM5.52157 30.421C5.52157 30.6588 5.32831 30.852 5.09051 30.852H3.38008C3.14227 30.852 2.94902 30.6588 2.94902 30.421V28.7105C2.94902 28.4727 3.14227 28.2795 3.38008 28.2795H5.09051C5.32831 28.2795 5.52157 28.4727 5.52157 28.7105V30.421ZM5.52157 4.88371C5.52157 5.12151 5.32831 5.31477 5.09051 5.31477H3.38008C3.14227 5.31477 2.94902 5.12151 2.94902 4.88371V3.17328C2.94902 2.93547 3.14227 2.74222 3.38008 2.74222H5.09051C5.32831 2.74222 5.52157 2.93547 5.52157 3.17328V4.88371ZM10.2275 30.421C10.2275 30.6588 10.0342 30.852 9.79639 30.852H8.08596C7.84816 30.852 7.6549 30.6588 7.6549 30.421V28.7105C7.6549 28.4727 7.84816 28.2795 8.08596 28.2795H9.79639C10.0342 28.2795 10.2275 28.4727 10.2275 28.7105V30.421ZM10.2275 4.88371C10.2275 5.12151 10.0342 5.31477 9.79639 5.31477H8.08596C7.84816 5.31477 7.6549 5.12151 7.6549 4.88371V3.17328C7.6549 2.93547 7.84816 2.74222 8.08596 2.74222H9.79639C10.0342 2.74222 10.2275 2.93547 10.2275 3.17328V4.88371ZM14.9333 30.421C14.9333 30.6588 14.7401 30.852 14.5023 30.852H12.7918C12.554 30.852 12.3608 30.6588 12.3608 30.421V28.7105C12.3608 28.4727 12.554 28.2795 12.7918 28.2795H14.5023C14.7401 28.2795 14.9333 28.4727 14.9333 28.7105V30.421ZM14.9333 4.88371C14.9333 5.12151 14.7401 5.31477 14.5023 5.31477H12.7918C12.554 5.31477 12.3608 5.12151 12.3608 4.88371V3.17328C12.3608 2.93547 12.554 2.74222 12.7918 2.74222H14.5023C14.7401 2.74222 14.9333 2.93547 14.9333 3.17328V4.88371ZM19.6392 30.421C19.6392 30.6588 19.446 30.852 19.2082 30.852H17.4977C17.2599 30.852 17.0667 30.6588 17.0667 30.421V28.7105C17.0667 28.4727 17.2599 28.2795 17.4977 28.2795H19.2082C19.446 28.2795 19.6392 28.4727 19.6392 28.7105V30.421ZM19.6392 4.88371C19.6392 5.12151 19.446 5.31477 19.2082 5.31477H17.4977C17.2599 5.31477 17.0667 5.12151 17.0667 4.88371V3.17328C17.0667 2.93547 17.2599 2.74222 17.4977 2.74222H19.2082C19.446 2.74222 19.6392 2.93547 19.6392 3.17328V4.88371ZM24.3451 30.421C24.3451 30.6588 24.1518 30.852 23.914 30.852H22.2036C21.9658 30.852 21.7726 30.6588 21.7726 30.421V28.7105C21.7726 28.4727 21.9658 28.2795 22.2036 28.2795H23.914C24.1518 28.2795 24.3451 28.4727 24.3451 28.7105V30.421ZM24.3451 4.88371C24.3451 5.12151 24.1518 5.31477 23.914 5.31477H22.2036C21.9658 5.31477 21.7726 5.12151 21.7726 4.88371V3.17328C21.7726 2.93547 21.9658 2.74222 22.2036 2.74222H23.914C24.1518 2.74222 24.3451 2.93547 24.3451 3.17328V4.88371ZM29.051 30.421C29.051 30.6588 28.8577 30.852 28.6199 30.852H26.9095C26.6717 30.852 26.4784 30.6588 26.4784 30.421V28.7105C26.4784 28.4727 26.6717 28.2795 26.9095 28.2795H28.6199C28.8577 28.2795 29.051 28.4727 29.051 28.7105V30.421ZM29.051 4.88371C29.051 5.12151 28.8577 5.31477 28.6199 5.31477H26.9095C26.6717 5.31477 26.4784 5.12151 26.4784 4.88371V3.17328C26.4784 2.93547 26.6717 2.74222 26.9095 2.74222H28.6199C28.8577 2.74222 29.051 2.93547 29.051 3.17328V4.88371Z" fill="url(#paint0_linear_22739_40771)"/>
<path d="M0 22.4209V26.1091C0 29.8029 2.9942 32.7971 6.688 32.7971H25.312C29.0058 32.7971 32 29.8029 32 26.1091V22.4209H0ZM5.52157 30.4209C5.52157 30.6587 5.32831 30.852 5.09051 30.852H3.38008C3.14227 30.852 2.94902 30.6587 2.94902 30.4209V28.7105C2.94902 28.4727 3.14227 28.2794 3.38008 28.2794H5.09051C5.32831 28.2794 5.52157 28.4727 5.52157 28.7105V30.4209ZM10.2275 30.4209C10.2275 30.6587 10.0342 30.852 9.79639 30.852H8.08596C7.84816 30.852 7.6549 30.6587 7.6549 30.4209V28.7105C7.6549 28.4727 7.84816 28.2794 8.08596 28.2794H9.79639C10.0342 28.2794 10.2275 28.4727 10.2275 28.7105V30.4209ZM14.9333 30.4209C14.9333 30.6587 14.7401 30.852 14.5023 30.852H12.7918C12.554 30.852 12.3608 30.6587 12.3608 30.4209V28.7105C12.3608 28.4727 12.554 28.2794 12.7918 28.2794H14.5023C14.7401 28.2794 14.9333 28.4727 14.9333 28.7105V30.4209ZM19.6392 30.4209C19.6392 30.6587 19.446 30.852 19.2082 30.852H17.4977C17.2599 30.852 17.0667 30.6587 17.0667 30.4209V28.7105C17.0667 28.4727 17.2599 28.2794 17.4977 28.2794H19.2082C19.446 28.2794 19.6392 28.4727 19.6392 28.7105V30.4209ZM24.3451 30.4209C24.3451 30.6587 24.1518 30.852 23.914 30.852H22.2036C21.9658 30.852 21.7726 30.6587 21.7726 30.4209V28.7105C21.7726 28.4727 21.9658 28.2794 22.2036 28.2794H23.914C24.1518 28.2794 24.3451 28.4727 24.3451 28.7105V30.4209ZM29.051 30.4209C29.051 30.6587 28.8577 30.852 28.6199 30.852H26.9095C26.6717 30.852 26.4784 30.6587 26.4784 30.4209V28.7105C26.4784 28.4727 26.6717 28.2794 26.9095 28.2794H28.6199C28.8577 28.2794 29.051 28.4727 29.051 28.7105V30.4209Z" fill="url(#paint1_linear_22739_40771)"/>
<path d="M12.1523 27.2338C9.49018 27.2337 7.32434 25.0679 7.32434 22.4059V11.1885C7.32434 8.52637 9.49018 6.3606 12.1523 6.3606C12.9873 6.3606 13.819 6.58598 14.5575 7.01239L24.2723 12.6211C25.782 13.4928 26.6834 15.0539 26.6834 16.7972C26.6834 18.5404 25.782 20.1016 24.2723 20.9732L14.5575 26.582C13.819 27.0083 12.9873 27.2338 12.1524 27.2338C12.1524 27.2338 12.1524 27.2338 12.1523 27.2338Z" fill="url(#paint2_linear_22739_40771)"/>
<path d="M32 26.109V21.9856L24.5329 14.5184C24.2611 14.1879 23.923 13.896 23.5178 13.662L14.1827 8.27242C11.721 6.85118 8.64398 8.62775 8.64398 11.4702V22.2493C8.64398 23.4316 9.17662 24.4292 9.97562 25.0892L13.1657 28.2794H14.5023C14.7401 28.2794 14.9334 28.4726 14.9334 28.7104V30.047L17.6834 32.797H25.312C29.0058 32.797 32 29.8028 32 26.109ZM26.4785 28.7104C26.4785 28.4726 26.6717 28.2794 26.9095 28.2794H28.62C28.8578 28.2794 29.051 28.4726 29.051 28.7104V30.4209C29.051 30.6587 28.8578 30.8519 28.62 30.8519H26.9095C26.6717 30.8519 26.4785 30.6587 26.4785 30.4209V28.7104ZM19.6392 30.4209C19.6392 30.6587 19.446 30.8519 19.2082 30.8519H17.4978C17.26 30.8519 17.0667 30.6587 17.0667 30.4209V28.7104C17.0667 28.4726 17.26 28.2794 17.4978 28.2794H19.2082C19.446 28.2794 19.6392 28.4726 19.6392 28.7104V30.4209ZM24.3451 30.4209C24.3451 30.6587 24.1519 30.8519 23.9141 30.8519H22.2036C21.9658 30.8519 21.7726 30.6587 21.7726 30.4209V28.7104C21.7726 28.4726 21.9658 28.2794 22.2036 28.2794H23.9141C24.1519 28.2794 24.3451 28.4726 24.3451 28.7104V30.4209Z" fill="url(#paint3_linear_22739_40771)"/>
<path d="M23.4549 13.5992L14.1198 8.20968C11.6581 6.78844 8.58112 8.565 8.58112 11.4075V22.1865C8.58112 25.029 11.6582 26.8056 14.1198 25.3843L23.4549 19.9948C25.9166 18.5736 25.9166 15.0205 23.4549 13.5992Z" fill="url(#paint4_linear_22739_40771)"/>
<path d="M23.4549 13.5992L14.1198 8.20968C11.6581 6.78844 8.58112 8.565 8.58112 11.4075V22.1865C8.58112 25.029 11.6582 26.8056 14.1198 25.3843L23.4549 19.9948C25.9166 18.5736 25.9166 15.0205 23.4549 13.5992Z" fill="url(#paint5_linear_22739_40771)"/>
</g>
<defs>
<linearGradient id="paint0_linear_22739_40771" x1="2.44706" y1="3.24418" x2="27.7122" y2="28.5094" gradientUnits="userSpaceOnUse">
<stop stop-color="#DC4955"/>
<stop offset="1" stop-color="#C4237C"/>
</linearGradient>
<linearGradient id="paint1_linear_22739_40771" x1="16" y1="23.8245" x2="16" y2="31.8598" gradientUnits="userSpaceOnUse">
<stop stop-color="#8A1958" stop-opacity="0"/>
<stop offset="1" stop-color="#8A1958"/>
</linearGradient>
<linearGradient id="paint2_linear_22739_40771" x1="17.0039" y1="25.8735" x2="17.0039" y2="8.56922" gradientUnits="userSpaceOnUse">
<stop stop-color="#DC4955"/>
<stop offset="1" stop-color="#C4237C"/>
</linearGradient>
<linearGradient id="paint3_linear_22739_40771" x1="28.0145" y1="29.9352" x2="16.5321" y2="19.4568" gradientUnits="userSpaceOnUse">
<stop stop-color="#8A1958" stop-opacity="0"/>
<stop offset="1" stop-color="#8A1958"/>
</linearGradient>
<linearGradient id="paint4_linear_22739_40771" x1="11.1394" y1="13.689" x2="19.094" y2="21.6435" gradientUnits="userSpaceOnUse">
<stop stop-color="#EEF4FF"/>
<stop offset="1" stop-color="#CFE7FD"/>
</linearGradient>
<linearGradient id="paint5_linear_22739_40771" x1="17.0179" y1="19.6339" x2="18.6493" y2="22.6456" gradientUnits="userSpaceOnUse">
<stop stop-color="#8AAADC" stop-opacity="0"/>
<stop offset="1" stop-color="#8AAADC"/>
</linearGradient>
<clipPath id="clip0_22739_40771">
<rect width="32" height="32" fill="white" transform="translate(0 0.797119)"/>
</clipPath>
</defs>
</svg>
